<?xml version="1.0" encoding="UTF-8"?>
<svg id="Layer_4" data-name="Layer 4" xmlns="http://www.w3.org/2000/svg" viewBox="0 0 373.56 339.21">
  <defs>
    <style>
      .cls-1 {
        fill: #a55023;
      }

      .cls-2 {
        fill: #dc6e1e;
      }

      .cls-3 {
        fill: #fbd026;
      }

      .cls-4 {
        fill: #59b254;
      }

      .cls-5 {
        fill: #1f96d6;
      }

      .cls-6 {
        fill: #4c9e48;
      }

      .cls-7 {
        fill: #5cb357;
      }

      .cls-8 {
        fill: #d7d9d8;
      }

      .cls-9 {
        fill: #1a91d5;
      }

      .cls-10 {
        fill: #7b3e8c;
      }

      .cls-11 {
        fill: #fefffe;
      }

      .cls-12 {
        fill: #d5d5d5;
      }

      .cls-13 {
        fill: #26739a;
      }

      .cls-14 {
        fill: #1d91d7;
      }

      .cls-15 {
        fill: #187fbe;
      }

      .cls-16 {
        fill: #fcd22a;
      }

      .cls-17 {
        fill: #32aaec;
      }

      .cls-18 {
        fill: #1790d6;
      }

      .cls-19 {
        fill: #1e87c3;
      }

      .cls-20 {
        fill: #1d74a3;
      }

      .cls-21 {
        fill: #fff;
        opacity: .15;
      }

      .cls-22 {
        fill: #e48526;
      }

      .cls-23 {
        fill: #1b91d6;
      }

      .cls-24 {
        fill: #9456a8;
      }

      .cls-25 {
        fill: #d5d6d7;
      }

      .cls-26 {
        fill: #74367e;
      }

      .cls-27 {
        fill: #f5af27;
      }

      .cls-28 {
        fill: #faa01e;
      }

      .cls-29 {
        fill: #facc0a;
      }

      .cls-30 {
        fill: #2396d2;
      }

      .cls-31 {
        fill: #8e4d9e;
      }

      .cls-32 {
        fill: #f1f2f3;
      }

      .cls-33 {
        fill: #35aff2;
      }

      .cls-34 {
        fill: #8d529e;
      }

      .cls-35 {
        opacity: .08;
      }

      .cls-36 {
        fill: #1f75a9;
      }
    </style>
  </defs>
  <g>
    <rect class="cls-20" x="230.4" y="58.83" width="25.02" height="7.57"/>
    <path class="cls-9" d="M222.88,74.6c-.29-.87-.7-2.14-.49-3.76.28-2.18,1.5-3.67,2.08-4.35,1.07-1.27,2.28-2.03,3.16-2.47h28.29c.13-.02.98-.12,1.68.49.55.48.67,1.11.69,1.29.32.99.81,2.5,1.38,4.35.96,3.08,1.63,5.39,1.88,6.23,3.22,11.02,3.93,13.08,5.64,19.19,1.19,4.25,2.64,10.09,5.54,21.76,2.23,8.96,3.09,12.67,3.76,18,.54,4.32.72,7.93.79,10.38l-27.47,41.64c-16.26-.86-32.52-1.71-48.78-2.57-2.06-22.94-3.61-39.53-4.35-44.51-.1-.69-.41-2.67.1-5.14.68-3.29,2.43-5.53,3.86-7.32,2.39-2.99,4.81-4.73,7.22-6.43,3.3-2.33,3.55-1.92,7.52-4.55,3.45-2.29,5.73-3.83,8.01-6.63,2.29-2.8,3.16-5.14,3.56-6.53.5-1.74,1.17-4.05.1-5.93-.31-.55-1-1.46-1.78-2.27-.93-.97-1.2-.98-1.68-1.68-.21-.31-.99-1.49-.89-3.07.09-1.36.78-2.32,1.19-2.87.84-1.16,1.26-.96,1.98-2.08.24-.37.89-1.4.89-2.77,0-.89-.27-1.56-.49-2.08-1.46-3.34-2.58-3.99-3.36-6.33Z"/>
    <ellipse class="cls-11" cx="239.05" cy="163.07" rx="34.57" ry="35.85"/>
    <path class="cls-15" d="M247.9,64.02h9.59c.48,1.48,1.17,3.59,1.98,6.13,1.32,4.12,3.04,9.57,4.05,12.86,2.22,7.24,3.76,13.13,6.82,24.92,1.93,7.41,2.89,11.11,3.36,13.25,2.22,10.06,3.13,18.42,3.56,24.03-3.53-1.58-7.05-3.16-10.58-4.75-.44-2.96-1.07-6.99-1.88-11.77-.76-4.46-1.72-10.1-3.07-16.52-1.85-8.83-3.66-15.43-4.95-20.08-2.1-7.61-4.98-17.15-8.9-28.09Z"/>
    <path class="cls-13" d="M201.22,56.75c0,.13-.02.53.25.74.06.05.29.21.99,0,.82-.24,1.35-.71,1.38-.74,1.65-1.45.76-.23,2.97-2.37,1.09-1.06,2.37-2.31,4.01-4.3,1.65-2.02,2.74-3.66,2.97-4.01,1.02-1.55,2.15-3.3,3.16-5.79.62-1.53,1-2.86,1.24-3.81,1.82.26,3.3.36,4.3.4,1.31.05,2.08.01,4.7.05,1.11.01,2.98-.56,3.56-.54-6.04-4.32-12.65-10.52-18.69-14.84-.02.91-.46,4.68-.54,6.23-.2,3.73-.31,5.6-.69,7.81-.74,4.23-2.09,7.38-2.77,8.95-.77,1.78-1.46,3.35-2.72,5.29-1.19,1.84-1.94,4.01-3.46,5.59-.11.11-.62.63-.64,1.34Z"/>
    <path class="cls-13" d="M205.84,23.52c-1.79-.2-3.6-.42-5.44-.67-1.42-.19-2.82-.39-4.2-.59v-2.89c-.74-.12-1.48-.25-2.23-.37v-5.64c.66-.21,1.32-.41,1.98-.62.04-.89.08-1.78.12-2.67l10.04-1.68c-.09,5.04-.18,10.09-.27,15.13Z"/>
    <path class="cls-18" d="M255.12,42.36c-.05-.91-.03-2.52.69-4.35.77-1.95,1.94-3.15,2.37-3.56,1.41-1.34,2.88-1.95,3.71-2.23h13.05c.27-.09.62-.26.89-.59.73-.9.32-2.32,0-3.31-1.32-4.07-2.87-6.48-2.87-6.48-2.27-3.53-4.56-5.77-5.09-6.28-2.38-2.29-4.67-3.81-6.28-4.75-2.59-1.51-4.99-2.43-6.87-3.02-1.91-.09-4.44-.2-7.42-.3-2.43-.08-6.45-.19-12.51-.25-5.48-.05-7.35,0-14.79,0-3.29,0-8.2,0-14.24-.04-.19,1.8-.29,3.33-.35,4.49-.19,3.83-.08,6.83,0,8.65.06,1.42.14,2.61.2,3.46,1.37.2,3.22.56,5.34,1.24,1,.32,4.53,1.49,8.6,4.1,3.6,2.31,5.91,4.66,7.22,5.98,1.04,1.06,1.83,1.97,2.98,3.31,1.58,1.83,1.87,2.31,2.06,2.67.47.88,1.03,2.33.99,4.45,7.48-.08,14.97-.16,22.45-.25-.05-.99-.1-1.98-.15-2.97Z"/>
    <rect class="cls-17" x="227.48" y="44.79" width="30.96" height="14.74" rx="1.68" ry="1.68"/>
    <rect class="cls-19" x="229.77" y="46.78" width="1.52" height="12.46"/>
    <rect class="cls-19" x="234.62" y="46.78" width="1.52" height="12.46"/>
    <rect class="cls-19" x="239.69" y="46.78" width="1.52" height="12.46"/>
    <rect class="cls-19" x="244.74" y="46.62" width="1.52" height="12.46"/>
    <rect class="cls-19" x="249.85" y="46.62" width="1.52" height="12.46"/>
    <rect class="cls-19" x="254.79" y="46.62" width="1.52" height="12.46"/>
  </g>
  <g>
    <g>
      <path class="cls-33" d="M344.23,152.54c.73-.21,2.21-.73,3.56-2.08.5-.5,1.63-1.66,2.08-3.56.15-.66.62-2.66-.49-4.55-1.57-2.66-4.91-2.77-5.14-2.77h-100.68c-1.21.12-3.19.5-5.24,1.78-2.23,1.39-3.39,3.13-4.05,4.15-.56.86-1.63,2.55-2.08,5.04-.07.4-.36,2.17,0,4.45.19,1.21.55,3.3,2.08,5.44,1.61,2.26,3.62,3.29,4.55,3.76,1.64.82,3.15,1.15,4.15,1.29h102.07c.57-.08,1.87-.34,3.07-1.38,1.68-1.46,1.93-3.41,2.01-4.05.08-.63.33-2.88-1.22-4.95-1.69-2.25-4.23-2.53-4.65-2.57Z"/>
      <path class="cls-30" d="M249.78,151.55c-.43-.65-.45-1.63,0-2.27.47-.67,1.34-.89,1.88-.89,1.83,0,24.25,0,26.11,0,12.63,0,58.88,0,71.51,0-.25.59-.78,1.64-1.88,2.58-1.41,1.2-2.92,1.5-3.56,1.58-19.25.11-89.45.5-92.27,0-1.28-.23-1.78-.99-1.78-.99Z"/>
      <path class="cls-5" d="M233.96,159.26h116.11c.07.38.13.98,0,1.68-.38,2-2.03,3.12-2.67,3.56-.53.36-1.53.94-2.97,1.19h-101.57c-1.03-.13-2.91-.51-4.85-1.78-2.42-1.59-3.59-3.68-4.05-4.65Z"/>
    </g>
    <g>
      <path class="cls-33" d="M343.34,178.65c.73-.21,2.21-.73,3.56-2.08.5-.5,1.63-1.66,2.08-3.56.15-.66.62-2.66-.49-4.55-1.57-2.66-4.91-2.77-5.14-2.77h-100.68c-1.21.12-3.19.5-5.24,1.78-2.23,1.39-3.39,3.13-4.05,4.15-.56.86-1.63,2.55-2.08,5.04-.07.4-.36,2.17,0,4.45.19,1.21.55,3.3,2.08,5.44,1.61,2.26,3.62,3.29,4.55,3.76,1.64.82,3.15,1.15,4.15,1.29h102.07c.57-.08,1.87-.34,3.07-1.38,1.68-1.46,1.93-3.41,2.01-4.05.08-.63.33-2.88-1.22-4.95-1.69-2.25-4.23-2.53-4.65-2.57Z"/>
      <path class="cls-30" d="M248.89,177.66c-.43-.65-.45-1.63,0-2.27.47-.67,1.34-.89,1.88-.89,1.83,0,24.25,0,26.11,0,12.63,0,58.88,0,71.51,0-.25.59-.78,1.64-1.88,2.58-1.41,1.2-2.92,1.5-3.56,1.58-19.25.11-89.45.5-92.27,0-1.28-.23-1.78-.99-1.78-.99Z"/>
      <path class="cls-5" d="M233.07,185.37h116.11c.07.38.13.98,0,1.68-.38,2-2.03,3.12-2.67,3.56-.53.36-1.53.94-2.97,1.19h-101.57c-1.03-.13-2.91-.51-4.85-1.78-2.42-1.59-3.59-3.68-4.05-4.65Z"/>
    </g>
  </g>
  <g>
    <rect class="cls-12" x="67.51" y="25.19" width="37.78" height="8.7"/>
    <path class="cls-32" d="M181.04,88.09c-1.49-12.53-2.07-17.15-2.87-24.79-.44-4.17-.76-7.55-.96-9.63-.51-1.28-1.38-3.18-2.77-5.27-2.19-3.3-4.25-4.39-8.97-8.82-7.37-6.92-6.67-5.49-12-10.69-2.39-2.33-3.72-3.78-6.33-5.36-1.82-1.1-4.43-2.68-8.04-3.08-1.11-.12-1.31-.02-6.86,0-1.74,0-3.17,0-4.09,0-.76.44-1.76,1.06-2.9,1.85-1,.69-2.59,1.8-4.35,3.43-2.33,2.15-2.56,2.99-4.48,4.22-1,.64-1.91,1.03-2.51,1.26-12.2-.28-24.73-.3-37.58,0-3.63.08-7.24.19-10.81.32-.51-.18-2.02-.62-3.69,0-.79.29-1.35.72-1.71,1.05-3.14,3.8-6.93,9.43-9.36,16.88-1.42,4.34-1.77,7.44-2.37,12.79-.18,1.58-.6,5.71.66,9.49.57,1.7,1.28,2.74,1.85,3.43,1.03,1.23,2.16,1.97,2.92,2.37-.24,10.26-.25,20.9,0,31.91.16,6.97.42,13.79.78,20.44,2.71,19.65,5.43,39.3,8.14,58.95,36.32,1.63,72.64,3.25,108.96,4.88,1.41-12.54,2.81-25.08,4.22-37.62,2.24-18.19,4.48-36.37,6.73-54.56-.67-5.78-1.22-10.43-1.58-13.45ZM166.93,97.98c-.47.69-1.83,2.48-4.35,3.43-3.07,1.16-5.75.26-6.46,0-1.93-1.76-3.87-3.52-5.8-5.27-2.78-3.95-5.6-7.9-8.44-11.87-5.89-8.22-11.78-16.31-17.67-24.26-.31-1.63-.62-3.25-.92-4.88.1-1.14.34-2.76.92-4.62,1.08-3.43,2.73-5.69,4.09-7.52,2.16-2.91,3.78-4.05,4.22-4.35.92-.63,1.77-1.05,2.37-1.32h5.14c.76.76,1.94,1.92,3.43,3.3,3.7,3.41,6.07,5.13,9.76,8.18,1.71,1.41,4.18,3.51,7.12,6.2.5.26,1.28.75,1.98,1.58,1.07,1.29,1.34,2.7,1.45,3.3,2.17,12.13,2.37,17.27,2.37,17.27.14,3.65.62,8.83,2.18,15.16-.46,1.89-.92,3.78-1.38,5.67Z"/>
    <path class="cls-7" d="M72.45,165.55c-.95-13.17-.78-22.02-.69-38.13.04-7.62.07-19.17,0-33.63.21-.56.76-1.83,2.08-2.87,1.13-.89,2.28-1.18,2.87-1.29h26.6c2.64.34,4.75.91,6.23,1.38,1.52.49,2.55.83,3.76,1.58,1.77,1.1,2.86,2.42,3.86,3.76,2.4,3.22,3.69,5.69,4.65,7.32,2.22,3.77,4.51,6.12,7.52,9.2,3.69,3.78,6.92,6.17,9.3,7.91,3.27,2.4,6.21,4.55,10.19,6.43,3.31,1.56,8.81,3.62,16.35,4.09v24.3c.35,9.43.7,18.86,1.05,28.29-30.76-.99-61.52-1.98-92.27-2.97-.42-3.51-1.01-8.85-1.48-15.37Z"/>
    <path class="cls-25" d="M50,73.42c1.19,1.42,2.37,2.84,3.56,4.25h11.57c6.89,0,13.78.16,20.67,0,1.91-.04,6.75-.03,16.42,0,1.53,0,4.74.04,8.6,1.19,3.06.91,5.03,2.07,5.54,2.37,2.46,1.48,4.02,3.08,5.24,4.35,1.44,1.49,2.25,2.61,3.96,4.95,1.91,2.61,3.84,5.2,5.74,7.81,4.06,5.59,6.09,8.39,7.12,9.4,3.03,2.94,5.94,4.58,9.4,6.53,2.75,1.55,5.66,3.19,9.4,4.35,3.14.98,8.93,2.27,16.71.99v-4.05c-1.51.06-3.62.1-6.13,0-3.47-.14-6.23-.25-9.45-.99-5.63-1.3-9.55-3.82-11.42-5.04-3.75-2.46-6.14-4.96-7.62-6.53-1.77-1.88-3.81-4.74-7.81-10.38-3.87-5.46-4.05-5.89-5.54-7.62-2.3-2.66-4.28-4.96-7.62-7.02-3.59-2.21-6.85-2.98-9.4-3.56-4.72-1.07-8.43-1.01-10.48-.99-6.89.09-13.79-.3-20.67-.03-6.51.25-15.89.43-27.79.03Z"/>
    <path class="cls-8" d="M129.91,40.19c-.12-.79-.29-2.61.69-4.45.91-1.72,2.35-2.57,3.36-3.16.5-.29,1.35-.79,2.57-1.09.4-.1,2.11-.49,4.25,0,2.14.49,3.58,1.59,4.45,2.27,4.24,3.33,7.6,6.41,7.62,6.43,3.59,3.3,3.43,2.72,9.4,7.91,2.65,2.31,4.75,4.23,6.07,5.44.53.75,1.23,1.87,1.75,3.36.36,1.03.53,1.92.69,3.07.31,2.2.47,3.3.49,5.74.03,2.48.38,5.11,1.09,10.38.93,6.96,1.4,10.44,1.58,11.37.27,1.42.71,3.53,0,6.03-.3,1.05-.77,2.62-2.24,3.76-2.04,1.58-4.54,1.19-5.08,1.09.29-.37.66-.91.99-1.62.19-.42.69-1.62.73-3.52.03-1.71-.33-3.01-.43-3.36-.06-.24-.54-3.42-1.48-9.79-1.3-8.78-.7-11.18-2.47-18.79-.2-.86-.38-1.56-.49-2.01-.76-1.08-1.52-2.15-2.27-3.23-.72-.71-1.8-1.77-3.16-3-2.29-2.07-3.26-2.75-6.63-5.51-1.67-1.37-1.05-.89-7.42-6.23-1.8-1.51-3.28-2.75-4.25-3.56-.67-.31-1.84-.73-3.26-.59-.65.06-1.2.23-2.08.59-1.09.46-2.65,1.21-4.45,2.47Z"/>
    <rect class="cls-14" x="69.09" width="34.22" height="19.58"/>
    <rect class="cls-36" x="72.91" y="2.67" width="2.24" height="16.25"/>
    <rect class="cls-36" x="80.96" y="2.67" width="2.24" height="16.25"/>
    <rect class="cls-36" x="89.23" y="2.67" width="2.24" height="16.25"/>
    <rect class="cls-36" x="97.27" y="2.67" width="2.24" height="16.25"/>
    <rect class="cls-23" x="64.47" y="17.8" width="43.91" height="8.84" rx="2.27" ry="2.27"/>
  </g>
  <g>
    <path class="cls-16" d="M151.51,180.99c-.19-1.79-.45-4.17-.66-6.07-.94-8.58-1.1-9.95-1.32-12.33-.23-2.52-.53-6.26-.73-10.88.09-1.19.4-2.8,1.35-4.42,1.4-2.39,3.37-3.53,4.25-4.02,1.63-.9,3.13-1.24,4.09-1.38,1.05-1.16,2.11-2.33,3.16-3.49h32.77c1.03,1.14,2.07,2.29,3.1,3.43.72.13,1.73.39,2.84.92,1.77.85,2.86,1.93,3.43,2.51.6.61,2.2,2.27,3.1,4.88.65,1.9.66,3.51.59,5.27-.19,4.89-.8,6.77-1.52,12.53-.4,3.2-.35,3.78-.99,9.03-.24,1.96-.45,3.56-.59,4.62-17.63-.2-35.25-.4-52.88-.59Z"/>
    <path class="cls-34" d="M155.86,166.48c2.17.13,5.37.3,9.23.4,6.2.16,10.62.07,14.57,0,4.92-.08,12-.16,20.97-.15-.14.71-.35,1.64-.66,2.73-.34,1.19-.9,3.13-2.04,5.46-.67,1.36-1.66,3.1-3.1,4.95l-32.84.33c-.66-.64-1.54-1.59-2.44-2.84-.73-1.02-2.18-3.08-3.03-6.13-.31-1.11-.65-2.74-.66-4.75Z"/>
    <path class="cls-21" d="M161.61,182.06c-.33-4.06-.95-9.86-1.14-12.02-.32-3.67-.28-7.38-.79-11.03-.34-2.47-.72-4.29,0-6.68.13-.43.53-1.68,2.23-4.1,1.16-1.67,2.97-3.95,5.64-6.33h-6.53c-.45.51-1.13,1.28-1.98,2.23-1.99,2.22-2.46,2.68-3.36,3.81-1.21,1.51-1.82,2.29-2.32,3.51-.54,1.32-.69,2.46-.74,3-.11,1.14.03,1.82.3,3.68.24,1.68.43,3.36.64,5.04,0,0,.23,1.77.54,4.8.47,4.53.8,11.55.94,14.44,2.09-.18,4.48-.16,6.58-.35Z"/>
    <path class="cls-35" d="M190.09,141.91c.53.31,1.27.78,2.08,1.43,1.14.92,1.85,1.76,2.67,2.72,1.04,1.22,1.71,2.01,2.37,3.26.35.66.86,1.62,1.14,2.92.33,1.51.17,2.64,0,4.1-.6,5.07.51-2.06-.59,6.03-.78,5.77-1.24,8.7-1.24,8.7-.36,2.36-.84,5.45-1.43,9.1h9.79c-.02-.72-.03-1.74,0-2.97.06-2.63.28-4.77.79-8.7.55-4.2.82-6.3,1.24-9,.53-3.45.76-4.58.54-6.53-.14-1.23-.39-3.33-1.78-5.59-1.25-2.03-2.82-3.22-3.71-3.81-1.54-1.01-3-1.46-3.96-1.68h-7.91Z"/>
    <path class="cls-10" d="M186.09,123.03c-.62-1.19-1.3-2.79-1.75-4.75-.62-2.71-.57-5.06-.4-6.66h-11.27c.02.46.04,1.12,0,1.91-.03.71-.19,3.09-1.22,6.03-.32.92-.81,2.12-1.55,3.46h16.19Z"/>
    <path class="cls-24" d="M161.86,138.86v-14.37c.07-.26.26-.77.73-1.25.53-.54,1.13-.73,1.38-.79,6.16-.14,12.4-.23,18.73-.26,3.16-.01,6.31-.01,9.43,0,.27.09,1.02.39,1.58,1.19.53.74.59,1.49.59,1.78v13.71h-32.44Z"/>
    <path class="cls-26" d="M164.15,138.3c-.1-4.43-.18-8.88.24-13.29.04-.3-.05-.59.76-.89.81.3.72.59.76.89.42,4.41.34,8.86.24,13.29,0,0-2,0-2,0h0Z"/>
    <path class="cls-26" d="M170.68,138.3c-.1-4.43-.18-8.88.24-13.29.04-.3-.05-.59.76-.89.81.3.72.59.76.89.42,4.41.34,8.86.24,13.29,0,0-2,0-2,0h0Z"/>
    <path class="cls-26" d="M177.18,138.4c-.1-4.43-.18-8.88.24-13.29.04-.3-.05-.59.76-.89.81.3.72.59.76.89.42,4.41.34,8.86.24,13.29,0,0-2,0-2,0h0Z"/>
    <path class="cls-26" d="M183.8,138.4c-.1-4.43-.18-8.88.24-13.29.04-.3-.05-.59.76-.89.81.3.72.59.76.89.42,4.41.34,8.86.24,13.29,0,0-2,0-2,0h0Z"/>
    <path class="cls-26" d="M190.26,138.4c-.1-4.43-.18-8.88.24-13.29.04-.3-.05-.59.76-.89.81.3.72.59.76.89.42,4.41.34,8.86.24,13.29,0,0-2,0-2,0h0Z"/>
    <path class="cls-27" d="M158.35,141.91c1.15-1.2,2.31-2.41,3.46-3.61h32.44c1.25,1.2,2.51,2.41,3.76,3.61h-39.66Z"/>
    <path class="cls-31" d="M168.32,111.82c.75.11,1.92.27,3.36.4,1.59.14,3.96.29,10.55.13,1.43-.03,3.39-.09,5.74-.19-1.03-2.72-1.8-4.92-2.31-6.4-1.04-3.05-1.39-4.35-2.77-5.41-1.22-.93-2.58-1.17-3.43-1.32-1.12-.2-2.58-.45-4.09.3-1.12.56-1.76,1.42-2.08,1.91-1.66,3.53-3.32,7.05-4.98,10.58Z"/>
  </g>
  <g>
    <polygon class="cls-4" points="80.31 190.12 44.35 207.94 7.71 133.99 42.78 123.16 80.31 190.12"/>
    <g>
      <path class="cls-4" d="M47.33,134.37c-3.35,1.53-6.78,3.17-10.29,4.95-4.52,2.29-8.81,4.61-12.86,6.92"/>
      <path class="cls-6" d="M48.67,137.3c-3.68.94-7.32,2.11-10.91,3.35-2.49,1.03-5.04,2.04-7.5,3.13-1.99.86-3.98,1.75-5.93,2.69,0,0-.26-.45-.26-.45,1.86-1.11,3.7-2.28,5.52-3.48,5.46-3.72,11.07-7.17,16.42-11.09,0,0,2.67,5.86,2.67,5.86h0Z"/>
    </g>
    <g>
      <path class="cls-4" d="M53.81,144.23c-3.35,1.53-6.78,3.17-10.29,4.95-4.52,2.29-8.81,4.61-12.86,6.92"/>
      <path class="cls-6" d="M55.14,147.16c-3.68.94-7.32,2.11-10.91,3.35-2.49,1.03-5.04,2.04-7.5,3.13-1.99.86-3.98,1.75-5.93,2.69,0,0-.26-.45-.26-.45,1.86-1.11,3.7-2.28,5.52-3.48,5.46-3.72,11.07-7.17,16.42-11.09,0,0,2.67,5.86,2.67,5.86h0Z"/>
    </g>
    <g>
      <path class="cls-4" d="M59.24,154.75c-3.35,1.53-6.78,3.17-10.29,4.95-4.52,2.29-8.81,4.61-12.86,6.92"/>
      <path class="cls-6" d="M60.58,157.68c-3.68.94-7.32,2.11-10.91,3.35-2.49,1.03-5.04,2.04-7.5,3.13-1.99.86-3.98,1.75-5.93,2.69,0,0-.26-.45-.26-.45,1.86-1.11,3.7-2.28,5.52-3.48,5.46-3.72,11.07-7.17,16.42-11.09,0,0,2.67,5.86,2.67,5.86h0Z"/>
    </g>
    <g>
      <path class="cls-4" d="M64.9,164.77c-3.35,1.53-6.78,3.17-10.29,4.95-4.52,2.29-8.81,4.61-12.86,6.92"/>
      <path class="cls-6" d="M66.24,167.7c-3.68.94-7.32,2.11-10.91,3.35-2.49,1.03-5.04,2.04-7.5,3.13-1.99.86-3.98,1.75-5.93,2.69l-.26-.45c1.86-1.11,3.7-2.28,5.52-3.48,5.46-3.72,11.07-7.17,16.42-11.09,0,0,2.67,5.86,2.67,5.86h0Z"/>
    </g>
    <g>
      <path class="cls-4" d="M69.71,175.72c-3.35,1.53-6.78,3.17-10.29,4.95-4.52,2.29-8.81,4.61-12.86,6.92"/>
      <path class="cls-6" d="M71.05,178.64c-3.68.94-7.32,2.11-10.91,3.35-2.49,1.03-5.04,2.04-7.5,3.13-1.99.86-3.98,1.75-5.93,2.69,0,0-.26-.45-.26-.45,1.86-1.11,3.7-2.28,5.52-3.48,5.46-3.72,11.07-7.17,16.42-11.09,0,0,2.67,5.86,2.67,5.86h0Z"/>
    </g>
    <rect class="cls-22" x="57.7" y="114.26" width="10.03" height="82.81" rx="5.01" ry="5.01" transform="translate(-62.6 44.03) rotate(-26.36)"/>
  </g>
  <g id="crate_" data-name="crate&amp;apos;">
    <rect class="cls-1" x="17.41" y="250.15" width="335.47" height="17.41"/>
    <rect class="cls-28" x="5.8" y="251.2" width="11.6" height="17.8"/>
    <rect class="cls-28" x="352.88" y="249.95" width="11.6" height="17.8"/>
    <g>
      <rect class="cls-29" y="179.2" width="370.81" height="66.99" rx="5.01" ry="5.01"/>
      <rect class="cls-2" y="185.27" width="370.81" height="67.52" rx="5" ry="5"/>
      <rect class="cls-28" x="5.8" y="185.27" width="358.95" height="60.92"/>
      <ellipse class="cls-2" cx="30.32" cy="216.03" rx="6.44" ry="5.93"/>
      <ellipse class="cls-2" cx="339.69" cy="216.03" rx="6.44" ry="5.93"/>
    </g>
    <g>
      <rect class="cls-29" y="265.63" width="370.81" height="66.99" rx="5.01" ry="5.01"/>
      <rect class="cls-2" y="271.7" width="370.81" height="67.52" rx="5" ry="5"/>
      <rect class="cls-28" x="5.8" y="271.7" width="358.95" height="60.92"/>
      <ellipse class="cls-2" cx="30.32" cy="302.46" rx="6.44" ry="5.93"/>
      <ellipse class="cls-2" cx="339.69" cy="302.46" rx="6.44" ry="5.93"/>
    </g>
  </g>
  <path class="cls-3" d="M269.79,193.71c.05,1.31-.19,4.87-.66,12-.65,9.72-1.21,13.6-1.32,21.49-.03,2.27-.02,4.12,0,5.27.2.95.69,2.44,1.98,3.56.95.83,1.92,1.1,3.69,1.58,1.81.5,2.71.74,3.69.53,2.37-.52,3.55-3.16,3.82-3.82.94-3.74,1.86-7.52,2.77-11.34,1.15-4.84,2.25-9.64,3.3-14.37,1.09,7.88,1.73,14.27,2.11,18.59.67,7.59.96,13.48,2.11,24.4.27,2.54.51,4.61.66,5.93.18.62.89,2.73,3.03,4.09.57.36,2.13,1.32,4.22,1.05,2.21-.28,3.53-1.75,3.96-2.24,1.11-1.28,1.46-2.64,1.58-3.3v-36.4c.86,6.69,1.52,12.2,1.98,16.09.79,6.69,1.39,12.14,2.51,20.84.27,2.12.5,3.87.66,5.06.18.64.71,2.23,2.24,3.51.43.36,2.25,1.83,4.75,1.58,2.45-.24,3.93-1.97,4.62-2.77.77-.89,1.2-1.78,1.45-2.37-.28-6.92-.63-13.96-1.05-21.1-.46-7.7-.99-15.26-1.58-22.68,1.18,6.1,2.32,12.3,3.43,18.59,1.12,6.36,2.17,12.65,3.16,18.86.22.53,1.38,3.2,4.35,4.35.63.24,2.92,1.13,5.27,0,3.13-1.5,3.54-5.18,3.56-5.41-.87-6.9-1.71-13.89-2.51-20.97-.8-7.11-1.55-14.14-2.24-21.1,1.59,5.83,3.17,11.68,4.75,17.55,1.24,4.62,2.47,9.23,3.69,13.83.14.35,1.24,3,4.09,3.82,2.21.64,4.05-.24,4.62-.53,2.99-1.5,3.72-4.68,3.82-5.14-.69-3.51-1.67-8.36-2.9-14.11-1.23-5.76-3.38-15.76-6.59-28.62-1.5-5.98-3.46-13.54-5.93-22.29-.47-.95-1.24-2.09-2.51-2.9-2.01-1.3-4.24-1.1-4.88-1.05-3.84.26-26.4.14-57.63-.07-.77-.02-2.34.06-3.56,1.13-1.17,1.02-1.45,2.44-1.58,3.16-1.26,7.08-.92,15.69-.92,15.69Z"/>
</svg>