<?xml version="1.0" encoding="UTF-8"?>
<svg id="Layer_2" data-name="Layer 2" xmlns="http://www.w3.org/2000/svg" viewBox="0 0 372.21 325.1">
  <defs>
    <style>
      .cls-1 {
        fill: #a55023;
      }

      .cls-2 {
        fill: #dc6e1e;
      }

      .cls-3 {
        fill: #fbb424;
      }

      .cls-4 {
        fill: #fcb629;
      }

      .cls-5 {
        fill: #fdde64;
      }

      .cls-6 {
        fill: #fff;
      }

      .cls-7 {
        fill: #fbb728;
      }

      .cls-8 {
        fill: #6a5a42;
      }

      .cls-9 {
        fill: #fab824;
      }

      .cls-10 {
        fill: #fcdc64;
      }

      .cls-11 {
        fill: #e7a154;
      }

      .cls-12 {
        fill: #fcd434;
      }

      .cls-13 {
        fill: #79d1f1;
      }

      .cls-14 {
        fill: #4ca0c7;
      }

      .cls-15 {
        fill: #d26f27;
      }

      .cls-16 {
        fill: #5bb2d5;
      }

      .cls-17 {
        fill: #da8231;
      }

      .cls-18 {
        fill: #dddfde;
      }

      .cls-19 {
        fill: #fcd12b;
      }

      .cls-20 {
        fill: #93def5;
      }

      .cls-21 {
        fill: #faa01e;
      }

      .cls-22 {
        fill: #facc0a;
      }

      .cls-23 {
        fill: #f3f2f3;
      }

      .cls-24 {
        fill: #fbb526;
      }

      .cls-25 {
        fill: #a0bf41;
      }

      .cls-26 {
        fill: #f6f7f6;
      }
    </style>
  </defs>
  <g>
    <rect class="cls-23" x="46.67" y="34.92" width="81.23" height="17.08" rx="3" ry="3"/>
    <rect class="cls-13" x="30.78" y="85.95" width="84.73" height="82.42"/>
    <path class="cls-14" d="M144.2,85.95c-5.3-12.04-10.6-24.09-15.91-36.13-4.29,12.12-8.58,24.24-12.87,36.36,9.59-.08,19.19-.15,28.78-.23Z"/>
    <polygon class="cls-20" points="128.3 49.82 46.67 49.89 30.78 85.95 115.57 85.95 128.3 49.82"/>
    <g>
      <path class="cls-18" d="M91.34,69.93c0,6.16-6.15,9.43-13.75,9.43s-13.65-3.26-13.75-9.43c-.27-16.78,6.15-9.97,13.75-9.97s13.75-6.42,13.75,9.97Z"/>
      <path class="cls-26" d="M91.9,63.67c0,5.32-6.26,9.1-13.98,9.1s-13.98-3.78-13.98-9.1,6.26-9.63,13.98-9.63,13.98,4.31,13.98,9.63Z"/>
    </g>
    <rect class="cls-6" x="40.21" y="124.16" width="65.27" height="44.21"/>
    <rect class="cls-16" x="115.57" y="85.95" width="28.63" height="80.97"/>
  </g>
  <g>
    <path class="cls-11" d="M267.38,57.5c0,1.8-12.27,5.24-25.81,5.24s-24.33-6.7-24.33-8.51,7.62-8.8,24.51-6.97c13.55.99,25.63,8.43,25.63,10.24Z"/>
    <path class="cls-15" d="M191.07,112.98c-22.28,68.1-24.98,128.4-5.42,134.88,19.56,6.49,53.89-43.32,76.25-111.4,31.1-94.66,24.98-128.4,5.42-134.88-19.56-6.49-41.18,4.23-76.25,111.4Z"/>
    <path class="cls-17" d="M190.76,112.69c-22.13,67.57-25.94,127.04-7.95,133.01,17.99,5.97,50.9-43.85,73.1-111.4,30.88-93.93,25.94-127.04,7.95-133.01-17.99-5.97-38.27,5.05-73.1,111.4Z"/>
    <path class="cls-11" d="M255.47,90.39c0,1.8-12.27,5.24-25.81,5.24s-24.33-6.7-24.33-8.51,7.62-8.8,24.51-6.97c13.55.99,25.63,8.43,25.63,10.24Z"/>
    <path class="cls-11" d="M244.19,123.27c0,1.8-12.27,5.24-25.81,5.24s-24.33-6.7-24.33-8.51,7.62-8.8,24.51-6.97c13.55.99,25.63,8.43,25.63,10.24Z"/>
    <path class="cls-11" d="M233.26,157.89c0,1.8-11.67,4.95-26.26,4.14-13.53-.74-24.33-8.18-24.33-9.98s7.62-7.33,24.51-5.5c13.55.99,26.07,9.53,26.07,11.34Z"/>
  </g>
  <g>
    <path class="cls-12" d="M149.13,166.92c-2.16-2.64-4.85-6.26-7.52-10.81-4.84-8.28-7.3-15.75-8.57-20.44-1.07-3.95-2.84-11.65-2.9-21.49-.04-5.83-.02-10.95,1.98-17.41,2.23-7.21,5.67-11.95,6.59-13.19,4.21-5.64,8.96-9,12-10.81,4.31,2.29,8.62,4.57,12.92,6.86.14,1.52.44,3.74,1.19,6.33.81,2.8,1.68,4.43,2.51,6.33.51,1.17,1.21,2.95,3.16,10.95,2.02,8.3,2.01,9.44,3.03,13.45,2.53,9.89,6.21,16.99,6.99,18.46,3.8,7.2,7.86,12.09,10.55,15.3,1.01,1.2,4.32,5.09,9.23,9.63,3.05,2.82,5.85,5.09,8.18,6.86h-59.34Z"/>
    <path class="cls-5" d="M157.44,76.98c-.68,1.5-1.61,3.72-2.51,6.46-2.79,8.58-3.02,15.62-3.16,21.36-.12,4.58-.24,10.76,1.19,18.73.96,5.34,2.8,15.13,9.36,25.85,2.72,4.45,7.45,11.01,15.16,17.27h30.07c-1.72-1.57-4.26-3.92-7.25-6.86-6.95-6.82-11.05-10.84-14.89-16.35-3.92-5.62-5.89-10.37-7.66-14.64-1.04-2.51-1.22-3.24-7.25-25.05-1.43-5.18-3.03-10.93-5.41-18.59-.65-2.11-1.21-3.84-1.58-5.01-2.02-1.05-4.04-2.11-6.07-3.16Z"/>
    <path class="cls-25" d="M150.14,73.11c1.13-1.68,2.01-3.11,2.62-4.14,1.42-2.4,2.14-3.64,2.67-5.24.44-1.33.59-2.34.89-4.35.38-2.53.33-3.75.99-6.03.43-1.47.76-2.07,1.19-2.57,1.03-1.21,2.37-1.61,2.97-1.78,2.46-.69,4.6.15,6.23.79,1.5.59,3.67,1.44,5.14,3.66.46.68,1.29,1.98,1.19,3.66-.04.62-.21,1.32-1.09,2.87-1.16,2.04-2.22,3.18-3.07,4.25-1.53,1.95-2.35,3.64-3.16,5.34-1.98,4.11-2.54,7.45-2.67,8.31-.18,1.13-.25,2.09-.29,2.77-1.75-.72-3.61-1.56-5.55-2.57-3.09-1.61-5.78-3.32-8.06-4.96Z"/>
    <path class="cls-8" d="M158.54,51.22c.04.61.69.82,2.52,2.03,1.26.83,2.44,1.78,3.66,2.67.7.51,1.72,1.25,2.97,2.18,1.06-.03,2.32-.14,3.71-.45.84-.18,1.95-.31,2.62-.54.09-.44-.18-1.21-.35-1.98-.35-1.6-1.53-2.54-2.92-3.61-.96-.74-2.38-1.82-4.6-2.42-1.35-.37-3.43-.94-5.49,0-.22.1-2.2,1.03-2.13,2.13Z"/>
  </g>
  <g>
    <path class="cls-9" d="M221.26,148.7c.39-.03,1.3-.05,2.14.51.68.45.98,1.04,1.32,1.71.11.21.59,1.18.79,2.7.24,1.8-.06,3.2-.13,3.53-.26,1.15-.55,2.41-1.65,3.46-.89.85-1.91,1.16-2.47,1.29.35.15.84.35,1.45.52,1.37.4,3.75,1.1,5.31.23,1.09-.61,1.45-2.06,2.11-4.95.81-3.51,1.21-5.26.56-7.05-.15-.41-1.63-4.32-4.91-4.45-2.59-.1-4.33,2.23-4.52,2.49Z"/>
    <path class="cls-19" d="M221.26,128.54v20.16c.53-.16,1.08-.25,1.65-.25,3.46,0,6.26,3.07,6.26,6.85s-2.8,6.85-6.26,6.85c-.57,0-1.12-.09-1.65-.25v16.61h123.96v-49.98h-123.96Z"/>
    <ellipse class="cls-3" cx="255.79" cy="150.67" rx="9.37" ry="9.59"/>
    <ellipse class="cls-7" cx="283.26" cy="139.24" rx="4.4" ry="4.1"/>
    <circle class="cls-24" cx="313.67" cy="147.2" r="8.6"/>
    <ellipse class="cls-24" cx="288.7" cy="165.9" rx="6.68" ry="4.95"/>
    <path class="cls-9" d="M322.27,128.81c1.22.02,3.52.26,5.74,1.78,2.44,1.68,3.43,4,4.05,5.54.95,2.33,1.1,4.31,1.19,5.74.42,6.99.11,12.92,0,15.23-.12,2.47-.29,6.26-.4,10.98h12.07v-39.26h-22.65Z"/>
    <path class="cls-10" d="M303.95,93.6c-10.96,4.68-22.05,9.35-33.16,14.03,1.38.75,2.24,1.79,2.24,2.93,0,2.3-3.47,4.16-7.75,4.16-2.8,0-5.24-.8-6.6-1.99-12.53,5.27-25.05,10.55-37.41,15.82,41.22.09,82.44.18,123.66.26-13.92-11.74-27.05-23.47-40.98-35.21Z"/>
    <ellipse class="cls-4" cx="298.39" cy="110.81" rx="7.17" ry="3.26"/>
    <ellipse class="cls-4" cx="277.39" cy="120.5" rx="5.85" ry="2.67"/>
  </g>
  <g id="crate_" data-name="crate&amp;apos;">
    <rect class="cls-1" x="17.41" y="236.02" width="335.47" height="17.41"/>
    <rect class="cls-21" x="5.8" y="237.07" width="11.6" height="17.8"/>
    <rect class="cls-21" x="352.88" y="235.82" width="11.6" height="17.8"/>
    <g>
      <rect class="cls-22" y="165.07" width="370.81" height="66.99" rx="5.01" ry="5.01"/>
      <rect class="cls-2" y="171.14" width="370.81" height="67.52" rx="5" ry="5"/>
      <rect class="cls-21" x="5.8" y="171.14" width="358.95" height="60.92"/>
      <ellipse class="cls-2" cx="30.32" cy="201.9" rx="6.44" ry="5.93"/>
      <ellipse class="cls-2" cx="339.69" cy="201.9" rx="6.44" ry="5.93"/>
    </g>
    <g>
      <rect class="cls-22" y="251.5" width="370.81" height="66.99" rx="5.01" ry="5.01"/>
      <rect class="cls-2" y="257.57" width="370.81" height="67.52" rx="5" ry="5"/>
      <rect class="cls-21" x="5.8" y="257.57" width="358.95" height="60.92"/>
      <ellipse class="cls-2" cx="30.32" cy="288.32" rx="6.44" ry="5.93"/>
      <ellipse class="cls-2" cx="339.69" cy="288.32" rx="6.44" ry="5.93"/>
    </g>
  </g>
</svg>