<?xml version="1.0" encoding="UTF-8"?>
<svg id="Layer_1" data-name="Layer 1" xmlns="http://www.w3.org/2000/svg" viewBox="0 0 372.21 325.1">
  <defs>
    <style>
      .cls-1 {
        fill: #a55023;
      }

      .cls-2 {
        fill: #f5826e;
      }

      .cls-3 {
        fill: #dc6e1e;
      }

      .cls-4 {
        fill: #faa037;
      }

      .cls-5 {
        fill: #91b945;
      }

      .cls-6 {
        fill: #69a041;
      }

      .cls-7 {
        fill: #4b8c41;
      }

      .cls-8 {
        fill: #f57828;
      }

      .cls-9 {
        fill: #faa01e;
      }

      .cls-10 {
        fill: #facc0a;
      }

      .cls-11 {
        fill: #353744;
      }

      .cls-12 {
        fill: #f04b37;
      }

      .cls-13 {
        fill: #e1322d;
      }
    </style>
  </defs>
  <g>
    <path class="cls-11" d="M39.4,124.29c.63,1.12,2.03,2.47,3.48,2.78,1.36.27,2.77,0,4.14.18,8.22.88,16.07,9.42,16.56,17.55.03,1.9,1.72,3,3.05,4.1,1.08.85,2.17,2.03,3.23,1.76.95-.23,1.66-1.08,2.41-1.68,1.15-1.06,2.62-2.01,3.13-3.22.49-1.14.27-2.84.2-3.99-.4-3.27-2.12-6.37-3.63-9.27-2.51-4.95-6.01-9.15-10.49-12.3-2.62-1.87-6.21-3.2-9.46-4.19-2.41-.72-5.06-1.56-7.27-1.11-4.67.82-8.07,4.77-5.42,9.27l.07.13Z"/>
    <path class="cls-5" d="M8.38,164.73c.81-1.67,2-3.92,3.66-6.43,1.8-2.73,4.01-6.04,7.81-9.4,4.52-4,8.82-5.88,9.89-6.33.9-.38,4.69-1.94,9.99-2.57,6.65-.79,11.84.32,13.75.79,2.42.6,7.25,2.04,12.36,5.54,1.52,1.04,2.72,2.03,3.56,2.77,1.23-1.03,3.09-2.46,5.54-3.86,5.22-2.99,9.86-4,12.46-4.55,2.43-.51,4.68-.99,7.81-.97,5.19.03,9.11,1.39,11.27,2.16,2.93,1.04,5.26,2.27,6.92,3.26v23.64H7.99c.13-1.35.26-2.7.4-4.05Z"/>
    <path class="cls-6" d="M69.51,127.11c-.44-2.63-.67-6.11,0-10.09.19-1.15,1.13-6.25,4.68-11.8,2.2-3.43,4.48-5.6,5.27-6.33,3.11-2.85,5.99-4.32,8.44-5.54,3.52-1.76,5.98-2.4,7.45-2.7,3.3-.69,5.12-.21,5.87,0,1.08.3,3.04.85,4.15,2.57.74,1.16.8,2.37.73,4.09-.15,3.52-.25,5.89-1.38,9.23-.29.85-1.71,4.9-5.21,9.23-3.68,4.55-7.67,6.97-9.36,7.91-3.71,2.06-7.14,2.98-9.49,3.43-2.05.47-4.76.83-7.91.53-1.18-.11-2.26-.3-3.23-.53Z"/>
  </g>
  <g>
    <path class="cls-7" d="M209.43,91.56c2.07-2.22,2.16-5.59,3.24-8.33,2.24-6.17,11.38-14.34,17.64-16.4,2.58-.87,5.33-1.15,7.94-1.84,5.09-1.16,9.36-5.48,9.93-10.79.79-5.68-3.59-11.17-9.09-12.33-2.95-.68-6.05-.35-9.03.09-11.21,1.4-18.69,6.73-26.25,14.65-3.94,4.2-8.76,8.16-11.01,13.6-1.46,3.78-1.2,8.06-1.24,12.19.07,3.49-.35,8.23,3.17,10.16,3.44,1.65,12.19,1.71,14.58-.87l.11-.11Z"/>
    <path class="cls-6" d="M137.68,90.8c-.72-1.88-.69-4.13-1.3-6.08-2.66-7.83-11.04-14.56-18.33-18.05-4.19-1.81-8.73-1.23-12.49-3.83-7.14-4.46-6.46-16,.46-20.26,3.35-2.36,7.91-1.67,11.87-1.26,6.05.66,11.02,2.56,16.42,6.18,4.69,3.1,9.01,6.74,12.82,10.81,3.36,3.89,8.03,8.09,10.15,13.09,1.17,2.98.93,6.48.96,10-.08,2.6.25,5.38-.39,7.9-1.24,4.27-5.87,3.56-10.12,3.9-3.2.04-8.65,1.14-9.99-2.27l-.06-.14Z"/>
    <path class="cls-6" d="M189.77,26.17c2.63-2.78,4.7-4.57,6.53-6.13,2.1-1.8,3.18-2.71,4.15-3.16.5-.23,5.07-2.25,9.69,0,2.73,1.33,4.09,3.47,5.14,5.14.99,1.57,2.38,3.76,2.37,6.73,0,2.89-1.32,4.98-2.57,6.92-1.88,2.91-3.29,3.65-6.92,7.12-2.31,2.21-5.03,4.81-7.71,8.51-3.16,4.35-4.72,8.08-5.34,9.69-1.49,3.86-1.87,6.65-1.98,7.52-.13,1.1-.17,1.89-.2,4.35-.07,5.42-.02,9.83,0,11.67.02,2.01.03,4.93,0,8.51-5.34-.26-10.68-.53-16.02-.79-3.05-19.77-3.75-35.02-2.57-41.74.67-3.8,1.98-6.73,1.98-6.73.74-1.66,1.55-2.99,6.73-9.49,3.34-4.19,5.04-6.33,6.73-8.11Z"/>
    <path class="cls-5" d="M155.75,92.24c.08-3.5.14-8.62,0-14.84-.19-8.53-.3-12.86-1.38-16.02-2.68-7.86-8.47-13.62-9.69-14.84-1.2-1.19-2.24-2.08-5.34-5.14-5.52-5.46-6.22-6.63-6.73-7.71-.53-1.14-2.42-5.24-.79-9.49,1.13-2.96,3.44-4.64,4.95-5.74,1.26-.92,2.72-1.98,4.95-2.37,3.14-.56,5.67.59,6.53.99,1.59.75,2.61,1.67,3.16,2.18,4.83,4.43,9,9.34,9.3,9.69,5.23,6.15,4.88,5.04,7.71,8.7,2.2,2.84,4.42,5.71,6.53,9.89,3.26,6.46,4.28,12.16,4.95,16.02.2,1.17.66,4.01.99,10.29.27,5.09.44,12.16,0,20.77-8.37-.79-16.75-1.58-25.12-2.37Z"/>
    <path class="cls-4" d="M112.63,167v-21.76c0-9.3.24-16.81-.52-26.11-.16-1.98-.56-6.98.52-10.88,1.16-4.16,3.75-6.83,6.33-9.49,2.3-2.37,5.4-5.5,10.48-7.12,2.22-.71,4.17-.93,5.54-.99h57.56c1.49-.18,10.7-1.35,21.16,0,2.13.28,4.63.7,7.52,1.98,5.66,2.51,8.96,6.61,10.29,8.31,1.85,2.36,2.74,4.25,2.97,4.75,1.11,2.41,1.57,4.6,1.78,6.13v62.31c-41.21-2.37-82.42-4.75-123.63-7.12Z"/>
    <path class="cls-8" d="M112.92,140h32.84c.45.19,1.13.55,1.78,1.19,1.16,1.14,1.48,2.48,1.68,3.36.23,1.01.54,2.36,0,3.86-.84,2.33-3.09,3.27-3.56,3.46h-32.74v-11.87Z"/>
    <path class="cls-8" d="M174.44,165.13v-40.85c.36-.9.91-2.08,1.78-3.36.53-.78,1.33-1.94,2.67-3.07,1.59-1.34,3.28-2.07,4.65-2.47h52.52c.2,17.14.4,34.29.59,51.43l-62.21.69v-2.37Z"/>
  </g>
  <g>
    <path class="cls-13" d="M284.42,143.86c.26-9.86.53-19.71.79-29.57,2.31-.01,5.68.1,9.69.69,9.49,1.41,16.47,4.62,21.36,6.92,5.16,2.42,8.71,4.68,9.89,5.44,4.64,3,7.81,5.74,8.6,6.43,1.09.95,5.45,4.82,10.19,11.08,3.44,4.54,8.28,11.93,12.16,22.35h-72.69v-23.34Z"/>
    <path class="cls-12" d="M214.69,167.8c.6-2.44,1.51-5.47,2.97-8.8,1.63-3.74,3.28-6.37,4.45-8.21,2.09-3.29,3.93-5.59,5.64-7.71,1.33-1.65,2.85-3.55,5.04-5.84,3.39-3.54,6.41-5.95,7.81-7.02,4.72-3.63,9.16-6.05,12.46-7.62,5.12-2.42,9.23-3.58,12.36-4.45,4.92-1.37,11.87-2.87,20.47-3.36v53.01h-71.21Z"/>
    <ellipse class="cls-2" cx="248.63" cy="152.47" rx="12.38" ry="12.66"/>
    <path class="cls-7" d="M280.36,102.62c.96-3.45,1.54-5.56,2.47-7.52,1.21-2.54,2.64-4.07,4.75-6.33,1.14-1.22,3.15-3.34,6.33-5.44,3.62-2.38,6.79-3.44,7.81-3.76.45-.14,3.84-1.18,8.21-1.19,1.65,0,2.87.14,4.05.89,1.55.98,2.15,2.44,2.27,2.77.76,1.95.17,3.67,0,4.15-.75,2.11-2.42,3.11-2.87,3.36-1.72,0-4.14.18-6.92.94-1.38.38-3.22.89-5.34,2.13-2.97,1.73-4.78,3.86-5.54,4.85-1.2,1.55-3.11,4.52-3.76,8.7-.41,2.65-.17,4.88.1,6.33h-12.76c-.12-1.92-.08-4.56.59-7.62.15-.68.3-1.21.59-2.27Z"/>
    <path class="cls-6" d="M285.8,123.49c-2.74,2.59-4.84,4.8-6.23,6.33-2.48,2.72-4.3,4.97-7.62,7.91-1.03.91-1.91,1.63-2.47,2.08-.54.2-2.44.86-4.45,0-2.02-.86-2.83-2.69-3.26-3.66-.8-1.8-.77-3.45-.69-4.28.83-1.06,1.72-2.15,2.67-3.24,2.56-2.93,5.15-5.42,7.62-7.52h-30.46c-.67-.35-1.7-.98-2.67-2.08-.85-.96-2.07-2.33-1.98-4.15.09-1.84,1.46-3.11,2.37-3.96.88-.82,1.77-1.3,2.37-1.58h89.7c.56.16,2.01.66,3.16,2.08.33.4,1.33,1.67,1.38,3.56.04,1.4-.47,2.42-.69,2.87-1.12,2.2-3.18,3.1-3.86,3.36-10.09.03-20.18.07-30.26.1,1.46,1.53,2.71,2.7,3.56,3.48,2.05,1.87,3.27,2.76,4.85,4.63.82.97,1.42,1.82,1.78,2.37.3.83.76,2.54,0,4.15-.42.9-1.24,1.52-2.87,2.77-1.2.92-1.82,1.38-2.57,1.52-1.58.29-2.95-.63-3.46-1.02-5.31-5.24-10.62-10.48-15.92-15.73Z"/>
  </g>
  <g id="crate_" data-name="crate&amp;apos;">
    <rect class="cls-1" x="18.8" y="236.04" width="335.47" height="17.41"/>
    <rect class="cls-9" x="7.2" y="237.09" width="11.6" height="17.8"/>
    <rect class="cls-9" x="354.27" y="235.84" width="11.6" height="17.8"/>
    <g>
      <rect class="cls-10" x="1.4" y="165.09" width="370.81" height="66.99" rx="5.01" ry="5.01"/>
      <rect class="cls-3" x="1.4" y="171.16" width="370.81" height="67.52" rx="5" ry="5"/>
      <rect class="cls-9" x="7.2" y="171.16" width="358.95" height="60.92"/>
      <ellipse class="cls-3" cx="31.71" cy="201.92" rx="6.44" ry="5.93"/>
      <ellipse class="cls-3" cx="341.09" cy="201.92" rx="6.44" ry="5.93"/>
    </g>
    <g>
      <rect class="cls-10" x="1.4" y="251.52" width="370.81" height="66.99" rx="5.01" ry="5.01"/>
      <rect class="cls-3" x="1.4" y="257.59" width="370.81" height="67.52" rx="5" ry="5"/>
      <rect class="cls-9" x="7.2" y="257.59" width="358.95" height="60.92"/>
      <ellipse class="cls-3" cx="31.71" cy="288.35" rx="6.44" ry="5.93"/>
      <ellipse class="cls-3" cx="341.09" cy="288.35" rx="6.44" ry="5.93"/>
    </g>
  </g>
</svg>