<?xml version="1.0" encoding="UTF-8"?>
<svg id="Layer_3" data-name="Layer 3" xmlns="http://www.w3.org/2000/svg" viewBox="0 0 373.3 326.37">
  <defs>
    <style>
      .cls-1 {
        fill: #a55023;
      }

      .cls-2 {
        fill: #c9caca;
      }

      .cls-3 {
        fill: #dc6e1e;
      }

      .cls-4 {
        fill: #f86c65;
      }

      .cls-5 {
        fill: #f5ac29;
      }

      .cls-6 {
        fill: #f8f7f8;
      }

      .cls-7 {
        fill: #1c7bb7;
      }

      .cls-8 {
        fill: #f8b426;
      }

      .cls-9 {
        fill: #d7302a;
      }

      .cls-10 {
        fill: #d9a66e;
      }

      .cls-11 {
        fill: #f9625b;
      }

      .cls-12 {
        fill: #f5ae20;
      }

      .cls-13 {
        fill: #3aacee;
      }

      .cls-14 {
        fill: #b3adac;
      }

      .cls-15 {
        fill: #fddd6c;
      }

      .cls-16 {
        fill: #e23b3b;
      }

      .cls-17 {
        fill: #fccd57;
        opacity: .33;
      }

      .cls-18 {
        fill: #e3e3e3;
      }

      .cls-19 {
        fill: #fdd74c;
      }

      .cls-20 {
        fill: #ac7544;
        stroke: #ab7546;
        stroke-miterlimit: 10;
        stroke-width: 2px;
      }

      .cls-21 {
        fill: #f44842;
      }

      .cls-22 {
        fill: #cfd0cf;
      }

      .cls-23 {
        fill: #fad029;
      }

      .cls-24 {
        fill: #e63833;
      }

      .cls-25 {
        fill: #de3d39;
      }

      .cls-26 {
        fill: #faa01e;
      }

      .cls-27 {
        fill: #facc0a;
      }

      .cls-28 {
        fill: #eeefef;
      }

      .cls-29 {
        fill: #1a91d4;
      }

      .cls-30 {
        fill: #b17c4d;
      }
    </style>
  </defs>
  <g>
    <path class="cls-29" d="M27.16,169.11v-74.51l8.18-12.4h65.67c2.77,3.96,5.54,7.91,8.31,11.87.22,25.01.44,50.02.66,75.03H27.16Z"/>
    <path class="cls-13" d="M35.34,147.81v-52.02c2.24-4.45,4.48-8.9,6.73-13.35h9.69c-1.95,4.32-3.89,8.64-5.84,12.96.22,16.55.45,33.1.67,49.65l-11.25,2.77Z"/>
    <path class="cls-7" d="M89.44,82.44h11.67c2.9,4.02,5.8,8.04,8.7,12.07l.2,72.79c-4.71-.16-9.43-.33-14.14-.49.03-5.11.07-10.22.1-15.33v-55.98c-2.18-4.35-4.35-8.7-6.53-13.05Z"/>
    <path class="cls-28" d="M26.74,148.8c.87-.1,2.09-.28,3.53-.59,3.44-.75,6.36-1.92,9.23-3.36,4.31-2.17,7.45-4.51,13.55-9.1,5-3.76,5.28-4.23,8.41-6.43,5.81-4.09,10.4-6.43,11.37-6.92,1.08-.55,5.36-2.71,11.37-4.85,3.56-1.26,9.53-3.34,17.6-4.45,3.34-.46,6.15-.63,8.11-.69v34.32c-.69,0-1.69.03-2.87.2-1.47.21-3.02.61-6.03,1.88-2.48,1.05-4.28,1.8-6.53,3.16-1.02.62-1.85,1.19-8.11,6.33-2.78,2.28-4.85,4.01-5.24,4.33-2.72,2.26-4.97,4.15-6.53,5.46-15.96-.33-31.91-.66-47.87-.99v-18.3Z"/>
    <path class="cls-6" d="M35.44,146.66c1.08-.39,2.2-1.07,3.36-1.61,2.85-1.32,5.25-2.72,7.22-4.15v26.51h-10.58v-20.74Z"/>
    <path class="cls-22" d="M95.67,114.19c1.86-.5,3.94-.95,6.23-1.29,2.95-.43,5.65-.59,8.01-.59v34.32c-.75-.1-1.93.18-3.3.37-1.82.25-2.95.48-5.5,1.71-1.13.54-3,1.44-5.44,2.57v-37.09Z"/>
    <path class="cls-2" d="M32.97,79.47c.02-.14.13-.87.69-1.58.5-.63,1.1-.92,1.38-1.04h66.12c.26.05.75.19,1.19.59.76.7.78,1.69.79,2.03,0,.3-.02,1.02-.45,1.73-.87,1.46-2.62,1.62-2.82,1.63-21.51-.05-43.02-.1-64.53-.15-.3-.02-.86-.09-1.38-.48-1.21-.9-1.01-2.59-.99-2.74Z"/>
    <path class="cls-18" d="M50.97,81.75c-.19-.22-.74-.9-.89-1.83-.27-1.71,1.04-3.02,1.19-3.16h-9.05c-.14.16-.32.39-.49.69-.19.31-.55.94-.64,1.81-.07.72.11,1.26.4,2.15.19.57.39,1.03.54,1.34,3.33-.05,6.66-.1,9.99-.15-.27-.15-.67-.41-1.04-.84Z"/>
    <path class="cls-14" d="M87.81,76.75h13.35c.27.13.83.45,1.29,1.09.51.73.58,1.45.59,1.63.08,1.15-.5,1.98-.69,2.23-.52.67-1.17.97-1.48,1.09h-11.03c.16-.33.35-.86.4-1.53.08-1.3-.49-2.27-.79-2.77-.52-.85-1.16-1.4-1.63-1.73Z"/>
  </g>
  <g>
    <rect class="cls-10" x="179.39" y="28.89" width="164.76" height="201.28" rx="2.55" ry="2.55" transform="translate(61.47 -83.03) rotate(20.37)"/>
    <path class="cls-30" d="M275.08,27.25c-.06,1.47.03,4.04,1.19,6.92.22.54,1.23,2.97,3.56,5.44,2.4,2.54,4.87,3.72,6.43,4.45,4.79,2.24,9,2.28,10.09,2.28,2.33-.02,5.06-.04,8.01-1.68,2.66-1.48,4.19-3.55,4.95-4.75-11.41-4.22-22.81-8.44-34.22-12.66Z"/>
    <path class="cls-20" d="M318.89,167.14c14.04-36.08,28.09-72.16,42.13-108.24"/>
  </g>
  <g>
    <path class="cls-23" d="M116.7,170.3c-1.18-3.44-2.79-8.88-3.69-15.73-.28-2.08-.97-7.93,0-25.42.25-4.52.67-10.85,1.4-18.46-.64-3-1.58-7.67-2.54-13.45-1.01-6.09-1.21-8.44-1.96-12.66-.73-4.14-1.97-9.98-4.17-17.01,1.66.02,4.14.04,7.13,0,7.83-.1,12.89-.47,20.7-.93,12.91-.75,10.34-.39,18.2-.92,10.3-.71,13.91-1.28,22.68-1.47,4.69-.1,8.3-.03,9.76,0,7.76.18,11.17.68,19.65,1.34,9.55.74,16.96,1.01,25.32,1.32,6.08.22,11.12.33,14.64.4-3.82,13.6-7.52,27.61-11.08,42.01-5.52,22.37-10.27,44.08-14.37,65.06-33.89-1.36-67.78-2.73-101.67-4.09Z"/>
    <path class="cls-12" d="M105.49,67.04c-.26-3.34-.53-6.68-.79-10.02,4.05.07,9.96.12,17.1,0,3.64-.06,8.85-.18,23.12-.84,13.63-.63,25.05-1.29,25.05-1.29,7.75-.44,10.84-.65,16.03-.64,3.49,0,5.55.11,15.35.64,17.04.92,19.32,1.07,24.14,1.29,4.34.19,10.69.44,18.45.58v10.81c-4.17-.31-10.58-.76-18.45-1.19-11-.59-12.44-.47-23.22-1.05-12.74-.7-13.51-1.02-20.04-1.08-5.45-.05-9.48.15-17.32.55-4.35.22-6.66.38-23.56,1.58-13.65.97-17.49,1.24-23.6,1.19-5.21-.05-9.48-.31-12.26-.53Z"/>
    <ellipse class="cls-15" cx="183.49" cy="141.88" rx="60.46" ry="43.98"/>
    <path class="cls-5" d="M150.59,96.58c.92.25,3.16,1.01,6.73,5.41,2.38,2.93,3.16,4.78,5.67,9.34.16.28,3.27,5.93,6.86,11.49,2.05,3.18,3.92,6.09,6.86,9.74,4.16,5.17,7.76,8.47,9.98,10.49,3.51,3.19,5.44,4.49,6.9,5.36,2.37,1.41,4.52,2.31,6.07,2.87-1.1.57-2.51,1.21-4.22,1.75-7.3,2.29-13.66.7-15.96,0-1.3-.39-2.78-.95-4.35-1.75-.85.12-2.08.28-3.56.47-5.07.66-7.63.99-8.97,1.01-.34,0-4.26.02-8.31-1.48-6.07-2.25-9.45-6.78-11.74-9.86-4.9-6.59-6.29-13.06-6.99-16.55-1.74-8.63-.37-14.75,0-16.29.75-3.08,1.86-5.52,3.56-7.65.95-1.18,2.17-2.68,4.35-3.69.6-.28,3.62-1.61,7.12-.66Z"/>
    <path class="cls-17" d="M154.81,128.1c-.54-3.1-.3-5.7,0-7.38.56-3.18,1.03-5.89,3.28-7.41,1.58-1.06,3.28-1.03,4.64-1,2.66.05,4.44,1.13,8.57,3.44,3.9,2.18,5.85,3.27,6.59,3.65,4.46,2.26,8.12,3.17,13.67,4.53,2.68.66,6.32,1.45,10.73,2.06.97,7.65,1.93,15.3,2.9,22.95-1.82,1.09-4.54,2.5-8.04,3.56-3.01.91-10.23,3-18.88.55-7.61-2.15-12.25-6.65-14.35-8.73-.93-.93-4.94-5.01-7.52-11.07-1.05-2.48-1.42-4.24-1.58-5.15Z"/>
    <path class="cls-8" d="M224.7,96.24c.87-1.57,2.13-3.83,3.69-6.52,3.36-5.77,5.09-8.74,7.52-12.05,1.76-2.4,4.38-5.65,8.04-9.2-.57,2.1-1.54,5.7-2.11,7.8-2.67,9.84-3.39,12.48-4.45,15.96-.88,2.91-1.65,5.28-2.15,6.8-3.52-.93-7.03-1.86-10.55-2.79Z"/>
    <path class="cls-19" d="M105.49,67.04c1.89,1.47,4.38,3.53,7.12,6.2,2.35,2.29,4.69,4.55,7.12,7.91.77,1.06,3.46,4.87,5.54,10.02,3.44,8.55,3.32,16.13,3.03,26.75-.15,5.49-.41,3.58-.92,13.34-.42,7.87-.52,14.35-.66,23.31-.08,5.28-.12,9.67-.13,12.73h-12.66c-.24-1.76-.56-4.33-.79-7.44-.42-5.5-.31-8.99-.26-14.2.14-15.12-.48-15.75.13-22.84.43-4.99,1.11-9.01,1.58-11.49-.27-1.71-.67-4.17-1.19-7.11-.38-2.19-1.59-8.93-4.62-22.67-.83-3.79-1.94-8.72-3.3-14.51Z"/>
  </g>
  <g>
    <path class="cls-21" d="M197.84,169.47c.05-4,.25-8.32.69-12.91.47-4.86,1.14-9.37,1.91-13.5-.29-1.05-.74-2.7-1.3-4.71-1.49-5.31-2.65-9.21-2.98-10.32-1.07-3.61-2.77-9.58-5.44-19.78v-11.87c1.15-1.09,2.31-2.18,3.46-3.26,1.38,1.42,2.77,2.84,4.15,4.25,1.32-1.42,2.64-2.84,3.96-4.25,1.45,1.35,2.9,2.7,4.35,4.05,1.25-1.35,2.51-2.7,3.76-4.05l4.46,4.35,3.85-4.35c1.35,1.42,2.7,2.84,4.05,4.25,1.29-1.42,2.57-2.84,3.86-4.25,1.35,1.38,2.7,2.77,4.05,4.15,1.26-1.38,2.52-2.77,3.78-4.15,1.38,1.35,2.75,2.7,4.13,4.05,1.38-1.35,2.77-2.7,4.15-4.05,1.38,1.35,2.77,2.7,4.15,4.05,1.23-1.35,2.46-2.7,3.69-4.05,1.57,1.38,3.15,2.77,4.72,4.15,1.29-1.38,2.57-2.77,3.86-4.15,1.35,1.22,2.7,2.44,4.05,3.66,1.42-1.22,2.84-2.44,4.25-3.66,1.24,1.35,2.47,2.69,3.71,4.04,1.57-1.35,3.13-2.69,4.7-4.04,1.15,1.29,2.31,2.57,3.46,3.86,1.48-1.29,2.96-2.57,4.45-3.86,1.29,1.32,2.58,2.64,3.86,3.96,1.42-1.32,2.84-2.64,4.25-3.96,1.29,1.38,2.57,2.77,3.86,4.15l4.15-4.15c1.78,1.35,3.56,2.7,5.34,4.05v9.4c-.6,3.67-1.22,6.66-1.68,8.7-1.94,8.62-4.25,15.23-5.96,20.08-1.03,2.92-1.93,5.28-2.52,6.8.23,1.39.57,3.49.96,6.05.61,3.98,1.19,7.76,1.78,12.56.21,1.7.49,4.15.79,7.12-33.59.53-67.19,1.05-100.78,1.58Z"/>
    <path class="cls-25" d="M190.81,105.56c38.14,0,76.29,0,114.43-.01v2.5h-114.43v-2.49Z"/>
    <path class="cls-11" d="M190.81,108.06c2.14,1.49,4.84,3.62,7.62,6.53,4.15,4.36,6.5,8.4,7.32,9.89,1.55,2.8,4.41,8.08,5.24,15.43.45,3.97.17,7.27,0,9.1-.25,2.69-.69,4.88-1.58,9.14-.51,2.47-1.2,5.54-2.08,9.05h-9.69c.11-2.41.27-4.88.49-7.42.53-6.08,1.33-11.8,2.3-17.11-.83-3.34-3.04-10.1-3.94-13.5-2.24-8.42-3.69-13.06-5.68-21.12Z"/>
    <path class="cls-16" d="M304.77,108.06c-.91,1.05-2.21,2.6-3.69,4.55-1.6,2.11-2.8,3.89-6.01,9-3.61,5.75-5.42,8.63-6.68,10.96-1.86,3.45-3.19,6.37-4.03,8.33.21,1.5.49,3.1.87,4.77.67,2.99,1.51,5.66,2.4,7.99l.77,14.34h10.01c-.08-2-.2-4.06-.38-6.18-.58-6.86-1.65-13.16-2.96-18.85,1.22-3.33,2.41-6.8,3.53-10.41,2.7-8.63,4.69-16.85,6.16-24.51Z"/>
    <ellipse class="cls-4" cx="248.67" cy="166.74" rx="41.74" ry="36.65"/>
    <path class="cls-24" d="M214.86,147.37c.87-1.12,1.93-1.8,4.04-3.16,1.69-1.09,2.49-1.35,3.02-1.48.55-.14,1.98-.48,3.71,0,1.45.4,2.37,1.18,3.07,1.78.4.35,1.87,1.67,2.82,3.96.96,2.3.9,4.36.79,5.44.54.13,1.28.33,2.13.68,1,.41,2.56,1.06,4.05,2.54.53.52,1.44,1.45,2.08,2.97.21.51.65,1.58.64,3.02,0,1.98-.84,3.44-1.29,4.1-6.05-.07-12.1-.13-18.15-.2-.08-1.46-.16-2.91-.25-4.37-.86-.51-2.07-1.28-3.41-2.35-2.89-2.3-4.33-3.45-4.95-5.44-1.15-3.73,1.55-7.28,1.69-7.47Z"/>
    <path class="cls-24" d="M278,146.18c-.87-1.12-1.93-1.8-4.04-3.16-1.69-1.09-2.49-1.35-3.02-1.48-.55-.14-1.98-.48-3.71,0-1.45.4-2.37,1.18-3.07,1.78-.4.35-1.87,1.67-2.82,3.96-.96,2.3-.9,4.36-.79,5.44-.54.13-1.28.33-2.13.68-1,.41-2.56,1.06-4.05,2.54-.53.52-1.44,1.45-2.08,2.97-.21.51-.65,1.58-.64,3.02,0,1.98.84,3.44,1.29,4.1,6.05-.07,12.1-.13,18.15-.2.08-1.46.16-2.91.25-4.37.86-.51,2.07-1.28,3.41-2.35,2.89-2.3,4.33-3.45,4.95-5.44,1.15-3.73-1.55-7.28-1.69-7.47Z"/>
    <path class="cls-9" d="M216.23,146.33c-.37,1.09-.69,2.56-.59,4.3.06,1.09.19,2.88,1.37,4.7.45.69,1.32,2.02,3.07,2.74,1.74.72,3.32.42,3.92.27-.28.72-.72,2.13-.52,3.91.03.29.19,1.59.98,3.07.85,1.6,2,2.6,2.73,3.13h-5.78c-.12-1.98-.23-3.96-.35-5.94-1.56-1.08-2.86-2.02-3.85-2.74-1.96-1.43-2.37-1.77-2.81-2.38-1.15-1.57-1.35-3.23-1.43-4.02-.11-1.07-.32-3.08.93-4.96.76-1.14,1.74-1.77,2.34-2.08Z"/>
    <path class="cls-9" d="M276.77,145.02c.37,1.09.69,2.56.59,4.3-.06,1.09-.19,2.88-1.37,4.7-.45.69-1.32,2.02-3.07,2.74-1.74.72-3.32.42-3.92.27.28.72.72,2.13.52,3.91-.03.29-.19,1.59-.98,3.07-.85,1.6-2,2.6-2.73,3.13h5.78c.12-1.98.23-3.96.35-5.94,1.56-1.08,2.86-2.02,3.85-2.74,1.96-1.43,2.37-1.77,2.81-2.38,1.15-1.57,1.35-3.23,1.43-4.02.11-1.07.32-3.08-.93-4.96-.76-1.14-1.74-1.77-2.34-2.08Z"/>
  </g>
  <g id="crate_" data-name="crate&amp;apos;">
    <rect class="cls-1" x="17.41" y="237.3" width="335.47" height="17.41"/>
    <rect class="cls-26" x="5.8" y="238.36" width="11.6" height="17.8"/>
    <rect class="cls-26" x="352.88" y="237.11" width="11.6" height="17.8"/>
    <g>
      <rect class="cls-27" y="166.36" width="370.81" height="66.99" rx="5.01" ry="5.01"/>
      <rect class="cls-3" y="172.42" width="370.81" height="67.52" rx="5" ry="5"/>
      <rect class="cls-26" x="5.8" y="172.42" width="358.95" height="60.92"/>
      <ellipse class="cls-3" cx="30.32" cy="203.18" rx="6.44" ry="5.93"/>
      <ellipse class="cls-3" cx="339.69" cy="203.18" rx="6.44" ry="5.93"/>
    </g>
    <g>
      <rect class="cls-27" y="252.79" width="370.81" height="66.99" rx="5.01" ry="5.01"/>
      <rect class="cls-3" y="258.85" width="370.81" height="67.52" rx="5" ry="5"/>
      <rect class="cls-26" x="5.8" y="258.85" width="358.95" height="60.92"/>
      <ellipse class="cls-3" cx="30.32" cy="289.61" rx="6.44" ry="5.93"/>
      <ellipse class="cls-3" cx="339.69" cy="289.61" rx="6.44" ry="5.93"/>
    </g>
  </g>
</svg>